<?xml version="1.0" standalone="no"?>
<!DOCTYPE svg PUBLIC "-//W3C//DTD SVG 20010904//EN"
 "http://www.w3.org/TR/2001/REC-SVG-20010904/DTD/svg10.dtd">
<svg version="1.0" xmlns="http://www.w3.org/2000/svg"
 width="192" height="192" viewBox="0 0 192 192"
 preserveAspectRatio="xMidYMid meet">

<g transform="translate(0,192) scale(0.1,-0.1)"
fill="#000000" stroke="none">
<path d="M915 1588 c-30 -22 -295 -212 -313 -224 -2 -1 8 -13 22 -27 l26 -26
0 -351 c0 -391 4 -368 -74 -464 l-44 -53 68 -68 69 -68 73 75 c40 41 99 98
132 126 l59 51 -27 31 c-25 31 -26 36 -26 161 l0 129 90 0 90 0 0 -144 c0
-129 -2 -146 -20 -169 l-21 -26 43 -43 c24 -24 71 -74 104 -111 l60 -69 77 82
78 81 -56 65 -55 65 0 350 0 350 27 25 c14 13 24 26 22 28 -2 1 -33 22 -69 46
-36 24 -105 74 -155 110 -147 109 -133 104 -180 68z m78 -251 l67 -49 0 -124
0 -124 -90 0 -90 0 0 174 c0 130 3 175 13 179 15 5 16 5 100 -56z"/>
</g>
</svg>
