<?xml version="1.0" standalone="no"?>
<!DOCTYPE svg PUBLIC "-//W3C//DTD SVG 20010904//EN"
 "http://www.w3.org/TR/2001/REC-SVG-20010904/DTD/svg10.dtd">
<svg version="1.0" xmlns="http://www.w3.org/2000/svg"
 width="451.000000pt" height="697.000000pt" viewBox="0 0 451.000000 697.000000"
 preserveAspectRatio="xMidYMid meet">
<metadata>

</metadata>
<g transform="translate(0,697) scale(0.1,-0.1)"
fill="#C9B79C" stroke="none">
<path d="M2043 6825 c-266 -195 -366 -269 -573 -422 -255 -188 -665 -479 -897
-637 -111 -75 -204 -145 -208 -155 -9 -31 3 -45 68 -80 75 -41 122 -83 150
-136 l22 -40 3 -1892 2 -1892 -25 -55 c-49 -107 -261 -410 -424 -604 -88 -106
-161 -200 -161 -210 0 -10 37 -54 83 -98 87 -83 94 -90 360 -333 92 -84 167
-156 167 -160 0 -3 23 -30 50 -59 32 -34 58 -52 73 -52 18 0 55 36 152 148
203 234 698 712 991 957 197 166 234 203 234 240 0 27 -15 46 -98 128 -62 62
-108 116 -125 150 l-27 54 0 670 c0 627 1 672 18 693 l17 22 445 -1 c408 -1
446 -3 458 -19 10 -13 12 -169 10 -763 l-3 -746 -40 -77 c-22 -43 -68 -112
-102 -153 -35 -43 -60 -80 -56 -88 3 -8 42 -46 86 -84 204 -173 495 -488 827
-896 129 -159 144 -175 167 -175 11 0 128 114 288 281 445 464 535 564 535
593 0 6 -41 54 -91 106 -50 52 -137 151 -193 220 -57 69 -133 161 -170 205
-37 44 -75 94 -84 110 -16 28 -17 170 -20 1895 l-2 1866 26 52 c28 56 65 90
161 146 64 38 85 68 62 92 -8 7 -99 68 -204 135 -314 201 -551 367 -1046 735
-575 427 -642 474 -676 474 -25 0 -72 -30 -230 -145z m137 -1142 c169 -133
371 -284 518 -387 l112 -79 0 -653 0 -654 -475 0 -475 0 0 895 c0 952 0 946
47 974 10 6 45 11 78 11 l60 0 135 -107z"/>
</g>
</svg>
